<svg width="18" height="19" viewBox="0 0 18 19" fill="none" xmlns="http://www.w3.org/2000/svg">
<g clip-path="url(#clip0_510_2582)">
<path d="M6.75 4.25H5.25C4.85218 4.25 4.47064 4.40804 4.18934 4.68934C3.90804 4.97064 3.75 5.35218 3.75 5.75V14.75C3.75 15.1478 3.90804 15.5294 4.18934 15.8107C4.47064 16.092 4.85218 16.25 5.25 16.25H12.75C13.1478 16.25 13.5294 16.092 13.8107 15.8107C14.092 15.5294 14.25 15.1478 14.25 14.75V5.75C14.25 5.35218 14.092 4.97064 13.8107 4.68934C13.5294 4.40804 13.1478 4.25 12.75 4.25H11.25M6.75 4.25C6.75 3.85218 6.90804 3.47064 7.18934 3.18934C7.47064 2.90804 7.85218 2.75 8.25 2.75H9.75C10.1478 2.75 10.5294 2.90804 10.8107 3.18934C11.092 3.47064 11.25 3.85218 11.25 4.25M6.75 4.25C6.75 4.64782 6.90804 5.02936 7.18934 5.31066C7.47064 5.59196 7.85218 5.75 8.25 5.75H9.75C10.1478 5.75 10.5294 5.59196 10.8107 5.31066C11.092 5.02936 11.25 4.64782 11.25 4.25M6.75 9.5H11.25M6.75 12.5H11.25" stroke="#E7E7E7" stroke-linecap="round" stroke-linejoin="round"/>
<path d="M13.9941 13.2441L17.0703 16.3349C17.1518 16.4159 17.2165 16.5122 17.2607 16.6183C17.3048 16.7244 17.3276 16.8381 17.3276 16.953C17.3276 17.0679 17.3048 17.1817 17.2607 17.2878C17.2165 17.3939 17.1518 17.4902 17.0703 17.5712C16.9056 17.735 16.6827 17.827 16.4503 17.827C16.218 17.827 15.9951 17.735 15.8303 17.5712L12.7441 14.4941" fill="#E7E7E7"/>
<path d="M11.1995 15.4495L10.122 14.372C10.0439 14.2939 10 14.1879 10 14.0774C10 13.9669 10.0439 13.861 10.122 13.7828L13.2828 10.622C13.361 10.5439 13.4669 10.5 13.5774 10.5C13.6879 10.5 13.7939 10.5439 13.872 10.622L14.9495 11.6995C15.0276 11.7776 15.0715 11.8836 15.0715 11.9941C15.0715 12.1046 15.0276 12.2105 14.9495 12.2887L11.7887 15.4495C11.7105 15.5276 11.6046 15.5715 11.4941 15.5715C11.3836 15.5715 11.2776 15.5276 11.1995 15.4495Z" fill="#E7E7E7"/>
<path d="M13.9941 13.2441L17.0703 16.3349C17.1518 16.4159 17.2165 16.5122 17.2607 16.6183C17.3048 16.7244 17.3276 16.8381 17.3276 16.953C17.3276 17.0679 17.3048 17.1817 17.2607 17.2878C17.2165 17.3939 17.1518 17.4902 17.0703 17.5712C16.9056 17.735 16.6827 17.827 16.4503 17.827C16.218 17.827 15.9951 17.735 15.8303 17.5712L12.7441 14.4941M11.1995 15.4495L10.122 14.372C10.0439 14.2939 10 14.1879 10 14.0774C10 13.9669 10.0439 13.861 10.122 13.7828L13.2828 10.622C13.361 10.5439 13.4669 10.5 13.5774 10.5C13.6879 10.5 13.7939 10.5439 13.872 10.622L14.9495 11.6995C15.0276 11.7776 15.0715 11.8836 15.0715 11.9941C15.0715 12.1046 15.0276 12.2105 14.9495 12.2887L11.7887 15.4495C11.7105 15.5276 11.6046 15.5715 11.4941 15.5715C11.3836 15.5715 11.2776 15.5276 11.1995 15.4495Z" stroke="#E7E7E7" stroke-width="0.5" stroke-linecap="round" stroke-linejoin="round"/>
</g>
<defs>
<clipPath id="clip0_510_2582">
<rect width="18" height="18" fill="white" transform="translate(0 0.5)"/>
</clipPath>
</defs>
</svg>
