<svg width="29" height="29" viewBox="0 0 29 29" fill="none" xmlns="http://www.w3.org/2000/svg">
<circle cx="14.5" cy="14.5" r="14.5" fill="url(#paint0_linear_113_232)" fill-opacity="0.2"/>
<path d="M9.38232 22.1767V20.4708C9.38232 19.5659 9.74178 18.6981 10.3816 18.0583C11.0214 17.4185 11.8892 17.059 12.7941 17.059H16.2059M17.0588 20.4708L18.7647 22.1767L22.1764 18.7649M11.0882 10.2355C11.0882 11.1404 11.4477 12.0081 12.0875 12.648C12.7273 13.2878 13.5951 13.6473 14.5 13.6473C15.4048 13.6473 16.2726 13.2878 16.9125 12.648C17.5523 12.0081 17.9117 11.1404 17.9117 10.2355C17.9117 9.33064 17.5523 8.46284 16.9125 7.82301C16.2726 7.18318 15.4048 6.82373 14.5 6.82373C13.5951 6.82373 12.7273 7.18318 12.0875 7.82301C11.4477 8.46284 11.0882 9.33064 11.0882 10.2355Z" stroke="#FF3B30" stroke-width="1.70588" stroke-linecap="round" stroke-linejoin="round"/>
<defs>
<linearGradient id="paint0_linear_113_232" x1="-3.39892" y1="14.4529" x2="32.0871" y2="14.4529" gradientUnits="userSpaceOnUse">
<stop stop-color="#F77C94"/>
<stop offset="0.50894" stop-color="#F3AE94"/>
<stop offset="1" stop-color="#B185FD"/>
</linearGradient>
</defs>
</svg>
