<svg width="16" height="15" viewBox="0 0 16 15" fill="none" xmlns="http://www.w3.org/2000/svg">
<path d="M1.25 7.5H2M8 0.75V1.5M14 7.5H14.75M3.2 2.7L3.725 3.225M12.8 2.7L12.275 3.225M6.27501 11.25H9.72501M5.75 10.5C5.12035 10.0278 4.65525 9.36939 4.42057 8.61813C4.1859 7.86687 4.19355 7.06082 4.44244 6.31415C4.69133 5.56748 5.16884 4.91804 5.80734 4.45784C6.44583 3.99764 7.21294 3.75 8 3.75C8.78706 3.75 9.55417 3.99764 10.1927 4.45784C10.8312 4.91804 11.3087 5.56748 11.5576 6.31415C11.8065 7.06082 11.8141 7.86687 11.5794 8.61813C11.3448 9.36939 10.8796 10.0278 10.25 10.5C9.95718 10.7899 9.7367 11.1446 9.6064 11.5355C9.47611 11.9264 9.43966 12.3424 9.5 12.75C9.5 13.1478 9.34196 13.5294 9.06066 13.8107C8.77936 14.092 8.39782 14.25 8 14.25C7.60218 14.25 7.22064 14.092 6.93934 13.8107C6.65804 13.5294 6.5 13.1478 6.5 12.75C6.56034 12.3424 6.52389 11.9264 6.3936 11.5355C6.2633 11.1446 6.04282 10.7899 5.75 10.5Z" stroke="#E7E7E7" stroke-linecap="round" stroke-linejoin="round"/>
</svg>
